<svg xmlns="http://www.w3.org/2000/svg" width="400" height="400" viewBox="0 0 400 400"><rect width="400" height="400" fill="#f5f5f5"/><rect x="50" y="80" width="100" height="100" fill="#d2042d" transform="rotate(25 100 130)"/><rect x="180" y="60" width="120" height="30" fill="#d2042d" transform="rotate(25 240 75)"/><rect x="200" y="120" width="80" height="80" fill="#d2042d" transform="rotate(25 240 160)"/><rect x="100" y="200" width="60" height="20" fill="#d2042d" transform="rotate(25 130 210)"/><rect x="250" y="200" width="50" height="50" fill="#d2042d" transform="rotate(25 275 225)"/><rect x="80" y="280" width="90" height="25" fill="#d2042d" transform="rotate(25 125 292.5)"/><rect x="220" y="280" width="70" height="20" fill="#d2042d" transform="rotate(25 255 290)"/><rect x="150" y="320" width="100" height="30" fill="#d2042d" transform="rotate(25 200 335)"/><rect x="300" y="300" width="60" height="60" fill="#d2042d" transform="rotate(25 330 330)"/></svg>

